inDegrees=yes
name=IK-live
DataType=double
version=3
OpenSimVersion=4.1
endheader
time	pelvis_tilt	pelvis_list	pelvis_rotation	pelvis_tx	pelvis_ty	pelvis_tz	hip_flexion_r	hip_adduction_r	hip_rotation_r	knee_angle_r	ankle_angle_r	subtalar_angle_r	mtp_angle_r	hip_flexion_l	hip_adduction_l	hip_rotation_l	knee_angle_l	ankle_angle_l	subtalar_angle_l	mtp_angle_l	lumbar_extension	lumbar_bending	lumbar_rotation	neck_flex	neck_latbend	neck_rot	arm_flex_r	arm_add_r	arm_rot_r	elbow_flex_r	pro_sup_r	wrist_flex_r	wrist_dev_r	arm_flex_l	arm_add_l	arm_rot_l	elbow_flex_l	pro_sup_l	wrist_flex_l	wrist_dev_l
0	-15.05603420452826	1.835839599028142	-181.0763852818608	0.2341366603171506	0.04326292228651554	-1.326684523481465	-22.57117169827992	-1.591976316804377	-3.241458145969817	5.899560354604904	2.451982624139334	1.987972377786656	0	-24.74788768789517	-3.395140484746916	-11.58000132048591	9.793848132074926	-0.4439473045988533	4.250290820099795	0	-21.37711699760957	1.659277491615732	3.206407148933037	0	0	0	0.7803905585344365	-15.17650172167909	33.31115490385253	7.0109906429667	24.87469770799566	0	0.01264190100557081	5.871351455044181	-13.22980017150874	43.89852679184512	6.825726427482477	33.48037721243955	0	0.01264190100557081
2.3150601	-20.85043865197051	-1.034769005993938	-187.6222624068128	0.2341366603171506	0.04326292228651554	-1.326684523481465	-22.57117169827992	-1.591976316804377	-3.241458145969817	5.899560354604904	2.451982624139334	1.987972377786656	0	-24.74788768789517	-3.395140484746916	-11.58000132048591	9.793848132074926	-0.4439473045988533	4.250290820099795	0	-21.37711699760957	1.659277491615732	3.206407148933037	0	0	0	0.8985560273740044	-15.17604481533734	33.19625078208875	7.433846307571021	25.05195888185908	0	0.0816637290538928	5.980634258545404	-13.23438326742939	43.73959418334896	7.250851813726475	33.57792071524569	0	0.0816637290538928
2.4819262	-21.17051961690974	-6.645225845455442	-187.3818061485846	0.2341366603171506	0.04326292228651554	-1.326684523481465	-22.57117169827992	-1.591976316804377	-3.241458145969817	5.899560354604904	2.451982624139334	1.987972377786656	0	-24.74788768789517	-3.395140484746916	-11.58000132048591	9.793848132074926	-0.4439473045988533	4.250290820099795	0	-21.37711699760957	1.659277491615732	3.206407148933037	0	0	0	1.01650984293488	-15.17558909178267	33.0817935617067	7.851577012141558	25.22747477968525	0	0.1497195507038302	6.089731474354884	-13.23895449437571	43.58137066037565	7.670790986629022	33.67460756408303	0	0.1497195507038302
2.6488097	-26.26538337172606	-21.25778654650562	-188.6233895569097	0.2341366603171506	0.04326292228651554	-1.326684523481465	-22.57117169827992	-1.591976316804377	-3.241458145969817	5.899560354604904	2.451982624139334	1.987972377786656	0	-24.74788768789517	-3.395140484746916	-11.58000132048591	9.793848132074926	-0.4439473045988533	4.250290820099795	0	-21.37711699760957	1.659277491615732	3.206407148933037	0	0	0	1.134252654226695	-15.17513454795318	32.96778093963904	8.264319202167123	25.40126776728731	0	0.2168233307432663	6.198643622012947	-13.24351388311002	43.42385139249497	8.08568316285764	33.77044607393096	0	0.2168233307432663
2.814724	-35.9449703631213	-36.77839125500549	-196.5837958814714	0.2341366603171506	0.04326292228651554	-1.326684523481465	-22.57117169827992	-1.591976316804377	-3.241458145969817	5.899560354604904	2.451982624139334	1.987972377786656	0	-24.74788768789517	-3.395140484746916	-11.58000132048591	9.793848132074926	-0.4439473045988533	4.250290820099795	0	-21.37711699760957	1.659277491615732	3.206407148933037	0	0	0	1.251785106883886	-15.1746811807949	32.85421063109337	8.672203230526407	25.57335977628515	0	0.2829888137246309	6.30737121860808	-13.24806146431472	43.26703160356162	8.495661293025837	33.86544445858195	0	0.2829888137246309
2.9816158	-64.61011794268263	-26.94410302694944	-223.6515102887001	0.2341366603171506	0.04326292228651554	-1.326684523481465	-22.57117169827992	-1.591976316804377	-3.241458145969817	5.899560354604904	2.451982624139334	1.987972377786656	0	-24.74788768789517	-3.395140484746916	-11.58000132048591	9.793848132074926	-0.4439473045988533	4.250290820099795	0	-21.37711699760957	1.659277491615732	3.206407148933037	0	0	0	1.730554392114847	-15.17272767652265	32.32670521803396	12.01503513498311	26.58267322541089	0	0.6947146221170842	6.747288676150874	-13.26765769151203	42.51350799687612	11.88238407732515	34.39577784983628	0	0.6947146221170842
